<?xml version="1.0" standalone="no"?>
<!DOCTYPE svg PUBLIC "-//W3C//DTD SVG 20010904//EN"
 "http://www.w3.org/TR/2001/REC-SVG-20010904/DTD/svg10.dtd">
<svg version="1.0" xmlns="http://www.w3.org/2000/svg"
 width="260.000000pt" height="260.000000pt" viewBox="0 0 260.000000 260.000000"
 preserveAspectRatio="xMidYMid meet">
<metadata>
Created by potrace 1.11, written by Peter Selinger 2001-2013
</metadata>
<g transform="translate(0.000000,260.000000) scale(0.100000,-0.100000)"
fill="#000000" stroke="none">
<path d="M1175 2069 c-238 -29 -524 -143 -663 -265 -108 -94 -149 -212 -104
-300 35 -69 45 -71 81 -16 39 61 158 176 236 229 131 88 267 142 424 168 189
32 338 7 429 -71 54 -46 67 -91 52 -177 -21 -116 -95 -202 -228 -265 -68 -32
-84 -36 -144 -33 -38 1 -84 -3 -103 -9 -49 -16 -102 -83 -124 -155 -23 -74
-17 -80 75 -72 38 3 64 1 64 -5 0 -22 162 -339 209 -408 64 -95 161 -193 220
-222 74 -36 138 -36 214 -1 73 35 164 119 196 180 20 41 27 105 15 137 -5 13
-12 10 -37 -16 -85 -85 -162 -118 -225 -97 -85 28 -201 178 -315 406 -33 68
-59 124 -56 126 2 2 47 24 100 50 193 92 316 195 367 305 34 74 41 198 17 276
-49 155 -205 232 -485 241 -74 2 -171 -1 -215 -6z"/>
<path d="M889 1742 c-114 -38 -111 -36 -93 -78 18 -43 29 25 -119 -718 -88
-445 -118 -613 -110 -625 5 -9 22 -22 36 -29 32 -16 113 -4 194 29 l52 21 0
66 c0 45 40 263 121 667 70 352 118 611 115 626 -15 68 -76 81 -196 41z"/>
</g>
</svg>
